solid CATIA STL
  facet normal  0.000000e+000  0.000000e+000 -1.000000e+000
    outer loop
      vertex -3.147638e+001 -2.801568e+001  2.100106e+001
      vertex -3.333048e+001 -2.801568e+001  2.100106e+001
      vertex -3.240343e+001 -2.766251e+001  2.100106e+001
    endloop
  endfacet
  facet normal  0.000000e+000  0.000000e+000 -1.000000e+000
    outer loop
      vertex -3.483048e+001  9.231048e-001  2.100106e+001
      vertex -3.240343e+001  1.659749e+000  2.100106e+001
      vertex -3.311053e+001  1.366856e+000  2.100106e+001
    endloop
  endfacet
  facet normal  0.000000e+000  0.000000e+000 -1.000000e+000
    outer loop
      vertex -3.483048e+001  9.231048e-001  2.100106e+001
      vertex -3.311053e+001  1.366856e+000  2.100106e+001
      vertex -3.340343e+001  6.597490e-001  2.100106e+001
    endloop
  endfacet
  facet normal  0.000000e+000  0.000000e+000 -1.000000e+000
    outer loop
      vertex -3.885395e+001 -2.516251e+001  2.100106e+001
      vertex -3.885395e+001 -8.402510e-001  2.100106e+001
      vertex -3.540343e+001 -2.516251e+001  2.100106e+001
    endloop
  endfacet
  facet normal  -0.000000e+000  0.000000e+000 -1.000000e+000
    outer loop
      vertex -3.311053e+001 -2.736961e+001  2.100106e+001
      vertex -3.240343e+001 -2.766251e+001  2.100106e+001
      vertex -3.333048e+001 -2.801568e+001  2.100106e+001
    endloop
  endfacet
  facet normal  0.000000e+000  0.000000e+000 -1.000000e+000
    outer loop
      vertex -2.595290e+001 -2.516251e+001  2.100106e+001
      vertex -2.940343e+001 -2.516251e+001  2.100106e+001
      vertex -2.595290e+001 -8.402510e-001  2.100106e+001
    endloop
  endfacet
  facet normal  0.000000e+000  -0.000000e+000 -1.000000e+000
    outer loop
      vertex -3.540343e+001 -8.402510e-001  2.100106e+001
      vertex -3.483048e+001  9.231048e-001  2.100106e+001
      vertex -3.340343e+001  6.597490e-001  2.100106e+001
    endloop
  endfacet
  facet normal  0.000000e+000  -0.000000e+000 -1.000000e+000
    outer loop
      vertex -3.540343e+001 -8.402510e-001  2.100106e+001
      vertex -3.340343e+001  6.597490e-001  2.100106e+001
      vertex -3.311053e+001 -4.735775e-002  2.100106e+001
    endloop
  endfacet
  facet normal  0.000000e+000  -0.000000e+000 -1.000000e+000
    outer loop
      vertex -3.540343e+001 -8.402510e-001  2.100106e+001
      vertex -3.311053e+001 -4.735775e-002  2.100106e+001
      vertex -3.240343e+001 -3.402510e-001  2.100106e+001
    endloop
  endfacet
  facet normal  0.000000e+000  -0.000000e+000 -1.000000e+000
    outer loop
      vertex -3.540343e+001 -8.402510e-001  2.100106e+001
      vertex -3.240343e+001 -3.402510e-001  2.100106e+001
      vertex -3.240343e+001 -2.566251e+001  2.100106e+001
    endloop
  endfacet
  facet normal  0.000000e+000  0.000000e+000 -1.000000e+000
    outer loop
      vertex -3.540343e+001 -8.402510e-001  2.100106e+001
      vertex -3.240343e+001 -2.566251e+001  2.100106e+001
      vertex -3.540343e+001 -2.516251e+001  2.100106e+001
    endloop
  endfacet
  facet normal  0.000000e+000  0.000000e+000 -1.000000e+000
    outer loop
      vertex -3.540343e+001 -8.402510e-001  2.100106e+001
      vertex -3.540343e+001 -2.516251e+001  2.100106e+001
      vertex -3.885395e+001 -8.402510e-001  2.100106e+001
    endloop
  endfacet
  facet normal  0.000000e+000  0.000000e+000 -1.000000e+000
    outer loop
      vertex -3.240343e+001 -2.566251e+001  2.100106e+001
      vertex -3.240343e+001 -3.402510e-001  2.100106e+001
      vertex -2.940343e+001 -8.402510e-001  2.100106e+001
    endloop
  endfacet
  facet normal  0.000000e+000  -0.000000e+000 -1.000000e+000
    outer loop
      vertex -3.240343e+001 -2.566251e+001  2.100106e+001
      vertex -2.940343e+001 -8.402510e-001  2.100106e+001
      vertex -2.595290e+001 -8.402510e-001  2.100106e+001
    endloop
  endfacet
  facet normal  0.000000e+000  0.000000e+000 -1.000000e+000
    outer loop
      vertex -3.240343e+001 -2.566251e+001  2.100106e+001
      vertex -2.595290e+001 -8.402510e-001  2.100106e+001
      vertex -2.940343e+001 -2.516251e+001  2.100106e+001
    endloop
  endfacet
  facet normal  0.000000e+000  0.000000e+000 -1.000000e+000
    outer loop
      vertex -3.240343e+001 -2.566251e+001  2.100106e+001
      vertex -2.940343e+001 -2.516251e+001  2.100106e+001
      vertex -3.169632e+001 -2.595540e+001  2.100106e+001
    endloop
  endfacet
  facet normal  0.000000e+000  0.000000e+000 -1.000000e+000
    outer loop
      vertex -3.140343e+001  6.597490e-001  2.100106e+001
      vertex -3.169632e+001  1.366856e+000  2.100106e+001
      vertex -2.997638e+001  9.231048e-001  2.100106e+001
    endloop
  endfacet
  facet normal  0.000000e+000  0.000000e+000 -9.999999e-001
    outer loop
      vertex -2.997638e+001  9.231048e-001  2.100106e+001
      vertex -3.169632e+001  1.366856e+000  2.100106e+001
      vertex -3.240343e+001  1.659749e+000  2.100106e+001
    endloop
  endfacet
  facet normal  0.000000e+000  0.000000e+000 -9.999999e-001
    outer loop
      vertex -2.997638e+001  9.231048e-001  2.100106e+001
      vertex -3.240343e+001  1.659749e+000  2.100106e+001
      vertex -3.147638e+001  2.012918e+000  2.100106e+001
    endloop
  endfacet
  facet normal  0.000000e+000  0.000000e+000 -1.000000e+000
    outer loop
      vertex -3.147638e+001  2.012918e+000  2.100106e+001
      vertex -3.240343e+001  1.659749e+000  2.100106e+001
      vertex -3.483048e+001  9.231048e-001  2.100106e+001
    endloop
  endfacet
  facet normal  0.000000e+000  0.000000e+000 -1.000000e+000
    outer loop
      vertex -3.147638e+001  2.012918e+000  2.100106e+001
      vertex -3.483048e+001  9.231048e-001  2.100106e+001
      vertex -3.333048e+001  2.012918e+000  2.100106e+001
    endloop
  endfacet
  facet normal  0.000000e+000  0.000000e+000 -1.000000e+000
    outer loop
      vertex -3.240343e+001 -2.566251e+001  2.100106e+001
      vertex -3.311053e+001 -2.595540e+001  2.100106e+001
      vertex -3.540343e+001 -2.516251e+001  2.100106e+001
    endloop
  endfacet
  facet normal  0.000000e+000  0.000000e+000 -1.000000e+000
    outer loop
      vertex -3.540343e+001 -2.516251e+001  2.100106e+001
      vertex -3.311053e+001 -2.595540e+001  2.100106e+001
      vertex -3.340343e+001 -2.666251e+001  2.100106e+001
    endloop
  endfacet
  facet normal  -0.000000e+000  0.000000e+000 -1.000000e+000
    outer loop
      vertex -3.540343e+001 -2.516251e+001  2.100106e+001
      vertex -3.340343e+001 -2.666251e+001  2.100106e+001
      vertex -3.483048e+001 -2.692586e+001  2.100106e+001
    endloop
  endfacet
  facet normal  0.000000e+000  0.000000e+000 -1.000000e+000
    outer loop
      vertex -3.483048e+001 -2.692586e+001  2.100106e+001
      vertex -3.340343e+001 -2.666251e+001  2.100106e+001
      vertex -3.311053e+001 -2.736961e+001  2.100106e+001
    endloop
  endfacet
  facet normal  -0.000000e+000  0.000000e+000 -1.000000e+000
    outer loop
      vertex -3.483048e+001 -2.692586e+001  2.100106e+001
      vertex -3.311053e+001 -2.736961e+001  2.100106e+001
      vertex -3.333048e+001 -2.801568e+001  2.100106e+001
    endloop
  endfacet
  facet normal  0.000000e+000  -0.000000e+000 -1.000000e+000
    outer loop
      vertex -3.240343e+001 -3.402510e-001  2.100106e+001
      vertex -3.169632e+001 -4.735775e-002  2.100106e+001
      vertex -2.940343e+001 -8.402510e-001  2.100106e+001
    endloop
  endfacet
  facet normal  0.000000e+000  0.000000e+000 -1.000000e+000
    outer loop
      vertex -2.940343e+001 -8.402510e-001  2.100106e+001
      vertex -3.169632e+001 -4.735775e-002  2.100106e+001
      vertex -3.140343e+001  6.597490e-001  2.100106e+001
    endloop
  endfacet
  facet normal  0.000000e+000  0.000000e+000 -1.000000e+000
    outer loop
      vertex -2.940343e+001 -8.402510e-001  2.100106e+001
      vertex -3.140343e+001  6.597490e-001  2.100106e+001
      vertex -2.997638e+001  9.231048e-001  2.100106e+001
    endloop
  endfacet
  facet normal  0.000000e+000  -0.000000e+000 -1.000000e+000
    outer loop
      vertex -3.240343e+001 -2.766251e+001  2.100106e+001
      vertex -3.169632e+001 -2.736961e+001  2.100106e+001
      vertex -3.147638e+001 -2.801568e+001  2.100106e+001
    endloop
  endfacet
  facet normal  0.000000e+000  0.000000e+000 -1.000000e+000
    outer loop
      vertex -3.147638e+001 -2.801568e+001  2.100106e+001
      vertex -3.169632e+001 -2.736961e+001  2.100106e+001
      vertex -3.140343e+001 -2.666251e+001  2.100106e+001
    endloop
  endfacet
  facet normal  0.000000e+000  -0.000000e+000 -9.999999e-001
    outer loop
      vertex -3.147638e+001 -2.801568e+001  2.100106e+001
      vertex -3.140343e+001 -2.666251e+001  2.100106e+001
      vertex -2.997638e+001 -2.692586e+001  2.100106e+001
    endloop
  endfacet
  facet normal  0.000000e+000  0.000000e+000 -1.000000e+000
    outer loop
      vertex -2.997638e+001 -2.692586e+001  2.100106e+001
      vertex -3.140343e+001 -2.666251e+001  2.100106e+001
      vertex -3.169632e+001 -2.595540e+001  2.100106e+001
    endloop
  endfacet
  facet normal  0.000000e+000  0.000000e+000 -1.000000e+000
    outer loop
      vertex -2.997638e+001 -2.692586e+001  2.100106e+001
      vertex -3.169632e+001 -2.595540e+001  2.100106e+001
      vertex -2.940343e+001 -2.516251e+001  2.100106e+001
    endloop
  endfacet
  facet normal  0.000000e+000  0.000000e+000  1.000000e+000
    outer loop
      vertex -3.240343e+001 -2.766251e+001  2.300106e+001
      vertex -3.333048e+001 -2.801568e+001  2.300106e+001
      vertex -3.147638e+001 -2.801568e+001  2.300106e+001
    endloop
  endfacet
  facet normal  0.000000e+000  0.000000e+000  1.000000e+000
    outer loop
      vertex -3.311053e+001  1.366856e+000  2.300106e+001
      vertex -3.240343e+001  1.659749e+000  2.300106e+001
      vertex -3.483048e+001  9.231048e-001  2.300106e+001
    endloop
  endfacet
  facet normal  0.000000e+000  0.000000e+000  1.000000e+000
    outer loop
      vertex -3.340343e+001  6.597490e-001  2.300106e+001
      vertex -3.311053e+001  1.366856e+000  2.300106e+001
      vertex -3.483048e+001  9.231048e-001  2.300106e+001
    endloop
  endfacet
  facet normal  0.000000e+000  0.000000e+000  1.000000e+000
    outer loop
      vertex -3.540343e+001 -2.516251e+001  2.300106e+001
      vertex -3.885395e+001 -8.402510e-001  2.300106e+001
      vertex -3.885395e+001 -2.516251e+001  2.300106e+001
    endloop
  endfacet
  facet normal  0.000000e+000  0.000000e+000  1.000000e+000
    outer loop
      vertex -3.333048e+001 -2.801568e+001  2.300106e+001
      vertex -3.240343e+001 -2.766251e+001  2.300106e+001
      vertex -3.311053e+001 -2.736961e+001  2.300106e+001
    endloop
  endfacet
  facet normal  0.000000e+000  0.000000e+000  1.000000e+000
    outer loop
      vertex -2.595290e+001 -8.402510e-001  2.300106e+001
      vertex -2.940343e+001 -2.516251e+001  2.300106e+001
      vertex -2.595290e+001 -2.516251e+001  2.300106e+001
    endloop
  endfacet
  facet normal  -0.000000e+000  0.000000e+000  1.000000e+000
    outer loop
      vertex -3.540343e+001 -8.402510e-001  2.300106e+001
      vertex -3.885395e+001 -8.402510e-001  2.300106e+001
      vertex -3.540343e+001 -2.516251e+001  2.300106e+001
    endloop
  endfacet
  facet normal  -0.000000e+000  0.000000e+000  1.000000e+000
    outer loop
      vertex -3.540343e+001 -8.402510e-001  2.300106e+001
      vertex -3.540343e+001 -2.516251e+001  2.300106e+001
      vertex -3.240343e+001 -2.566251e+001  2.300106e+001
    endloop
  endfacet
  facet normal  0.000000e+000  -0.000000e+000  1.000000e+000
    outer loop
      vertex -3.540343e+001 -8.402510e-001  2.300106e+001
      vertex -3.240343e+001 -2.566251e+001  2.300106e+001
      vertex -3.240343e+001 -3.402510e-001  2.300106e+001
    endloop
  endfacet
  facet normal  0.000000e+000  0.000000e+000  1.000000e+000
    outer loop
      vertex -3.540343e+001 -8.402510e-001  2.300106e+001
      vertex -3.240343e+001 -3.402510e-001  2.300106e+001
      vertex -3.311053e+001 -4.735775e-002  2.300106e+001
    endloop
  endfacet
  facet normal  0.000000e+000  0.000000e+000  1.000000e+000
    outer loop
      vertex -3.540343e+001 -8.402510e-001  2.300106e+001
      vertex -3.311053e+001 -4.735775e-002  2.300106e+001
      vertex -3.340343e+001  6.597490e-001  2.300106e+001
    endloop
  endfacet
  facet normal  0.000000e+000  0.000000e+000  1.000000e+000
    outer loop
      vertex -3.540343e+001 -8.402510e-001  2.300106e+001
      vertex -3.340343e+001  6.597490e-001  2.300106e+001
      vertex -3.483048e+001  9.231048e-001  2.300106e+001
    endloop
  endfacet
  facet normal  0.000000e+000  -0.000000e+000  1.000000e+000
    outer loop
      vertex -3.240343e+001 -2.566251e+001  2.300106e+001
      vertex -3.169632e+001 -2.595540e+001  2.300106e+001
      vertex -2.940343e+001 -2.516251e+001  2.300106e+001
    endloop
  endfacet
  facet normal  0.000000e+000  -0.000000e+000  1.000000e+000
    outer loop
      vertex -3.240343e+001 -2.566251e+001  2.300106e+001
      vertex -2.940343e+001 -2.516251e+001  2.300106e+001
      vertex -2.595290e+001 -8.402510e-001  2.300106e+001
    endloop
  endfacet
  facet normal  0.000000e+000  0.000000e+000  1.000000e+000
    outer loop
      vertex -3.240343e+001 -2.566251e+001  2.300106e+001
      vertex -2.595290e+001 -8.402510e-001  2.300106e+001
      vertex -2.940343e+001 -8.402510e-001  2.300106e+001
    endloop
  endfacet
  facet normal  0.000000e+000  0.000000e+000  1.000000e+000
    outer loop
      vertex -3.240343e+001 -2.566251e+001  2.300106e+001
      vertex -2.940343e+001 -8.402510e-001  2.300106e+001
      vertex -3.240343e+001 -3.402510e-001  2.300106e+001
    endloop
  endfacet
  facet normal  0.000000e+000  0.000000e+000  1.000000e+000
    outer loop
      vertex -3.333048e+001  2.012918e+000  2.300106e+001
      vertex -3.483048e+001  9.231048e-001  2.300106e+001
      vertex -3.147638e+001  2.012918e+000  2.300106e+001
    endloop
  endfacet
  facet normal  0.000000e+000  0.000000e+000  1.000000e+000
    outer loop
      vertex -3.147638e+001  2.012918e+000  2.300106e+001
      vertex -3.483048e+001  9.231048e-001  2.300106e+001
      vertex -3.240343e+001  1.659749e+000  2.300106e+001
    endloop
  endfacet
  facet normal  -0.000000e+000  0.000000e+000  9.999999e-001
    outer loop
      vertex -3.147638e+001  2.012918e+000  2.300106e+001
      vertex -3.240343e+001  1.659749e+000  2.300106e+001
      vertex -2.997638e+001  9.231048e-001  2.300106e+001
    endloop
  endfacet
  facet normal  0.000000e+000  0.000000e+000  9.999999e-001
    outer loop
      vertex -2.997638e+001  9.231048e-001  2.300106e+001
      vertex -3.240343e+001  1.659749e+000  2.300106e+001
      vertex -3.169632e+001  1.366856e+000  2.300106e+001
    endloop
  endfacet
  facet normal  0.000000e+000  0.000000e+000  1.000000e+000
    outer loop
      vertex -2.997638e+001  9.231048e-001  2.300106e+001
      vertex -3.169632e+001  1.366856e+000  2.300106e+001
      vertex -3.140343e+001  6.597490e-001  2.300106e+001
    endloop
  endfacet
  facet normal  0.000000e+000  0.000000e+000  1.000000e+000
    outer loop
      vertex -3.333048e+001 -2.801568e+001  2.300106e+001
      vertex -3.311053e+001 -2.736961e+001  2.300106e+001
      vertex -3.483048e+001 -2.692586e+001  2.300106e+001
    endloop
  endfacet
  facet normal  -0.000000e+000  0.000000e+000  1.000000e+000
    outer loop
      vertex -3.483048e+001 -2.692586e+001  2.300106e+001
      vertex -3.311053e+001 -2.736961e+001  2.300106e+001
      vertex -3.340343e+001 -2.666251e+001  2.300106e+001
    endloop
  endfacet
  facet normal  0.000000e+000  0.000000e+000  1.000000e+000
    outer loop
      vertex -3.483048e+001 -2.692586e+001  2.300106e+001
      vertex -3.340343e+001 -2.666251e+001  2.300106e+001
      vertex -3.540343e+001 -2.516251e+001  2.300106e+001
    endloop
  endfacet
  facet normal  0.000000e+000  0.000000e+000  1.000000e+000
    outer loop
      vertex -3.540343e+001 -2.516251e+001  2.300106e+001
      vertex -3.340343e+001 -2.666251e+001  2.300106e+001
      vertex -3.311053e+001 -2.595540e+001  2.300106e+001
    endloop
  endfacet
  facet normal  0.000000e+000  -0.000000e+000  1.000000e+000
    outer loop
      vertex -3.540343e+001 -2.516251e+001  2.300106e+001
      vertex -3.311053e+001 -2.595540e+001  2.300106e+001
      vertex -3.240343e+001 -2.566251e+001  2.300106e+001
    endloop
  endfacet
  facet normal  -0.000000e+000  0.000000e+000  1.000000e+000
    outer loop
      vertex -2.997638e+001  9.231048e-001  2.300106e+001
      vertex -3.140343e+001  6.597490e-001  2.300106e+001
      vertex -2.940343e+001 -8.402510e-001  2.300106e+001
    endloop
  endfacet
  facet normal  0.000000e+000  0.000000e+000  1.000000e+000
    outer loop
      vertex -2.940343e+001 -8.402510e-001  2.300106e+001
      vertex -3.140343e+001  6.597490e-001  2.300106e+001
      vertex -3.169632e+001 -4.735775e-002  2.300106e+001
    endloop
  endfacet
  facet normal  0.000000e+000  0.000000e+000  1.000000e+000
    outer loop
      vertex -2.940343e+001 -8.402510e-001  2.300106e+001
      vertex -3.169632e+001 -4.735775e-002  2.300106e+001
      vertex -3.240343e+001 -3.402510e-001  2.300106e+001
    endloop
  endfacet
  facet normal  -0.000000e+000  0.000000e+000  1.000000e+000
    outer loop
      vertex -2.940343e+001 -2.516251e+001  2.300106e+001
      vertex -3.169632e+001 -2.595540e+001  2.300106e+001
      vertex -2.997638e+001 -2.692586e+001  2.300106e+001
    endloop
  endfacet
  facet normal  0.000000e+000  0.000000e+000  1.000000e+000
    outer loop
      vertex -2.997638e+001 -2.692586e+001  2.300106e+001
      vertex -3.169632e+001 -2.595540e+001  2.300106e+001
      vertex -3.140343e+001 -2.666251e+001  2.300106e+001
    endloop
  endfacet
  facet normal  0.000000e+000  0.000000e+000  9.999999e-001
    outer loop
      vertex -2.997638e+001 -2.692586e+001  2.300106e+001
      vertex -3.140343e+001 -2.666251e+001  2.300106e+001
      vertex -3.147638e+001 -2.801568e+001  2.300106e+001
    endloop
  endfacet
  facet normal  0.000000e+000  -0.000000e+000  1.000000e+000
    outer loop
      vertex -3.147638e+001 -2.801568e+001  2.300106e+001
      vertex -3.140343e+001 -2.666251e+001  2.300106e+001
      vertex -3.169632e+001 -2.736961e+001  2.300106e+001
    endloop
  endfacet
  facet normal  0.000000e+000  0.000000e+000  1.000000e+000
    outer loop
      vertex -3.147638e+001 -2.801568e+001  2.300106e+001
      vertex -3.169632e+001 -2.736961e+001  2.300106e+001
      vertex -3.240343e+001 -2.766251e+001  2.300106e+001
    endloop
  endfacet
  facet normal  3.826830e-001 -9.238796e-001  0.000000e+000
    outer loop
      vertex -3.240343e+001  1.659749e+000  2.100106e+001
      vertex -3.311053e+001  1.366856e+000  2.300106e+001
      vertex -3.311053e+001  1.366856e+000  2.100106e+001
    endloop
  endfacet
  facet normal  9.238799e-001 -3.826826e-001  0.000000e+000
    outer loop
      vertex -3.311053e+001  1.366856e+000  2.100106e+001
      vertex -3.311053e+001  1.366856e+000  2.300106e+001
      vertex -3.340343e+001  6.597490e-001  2.300106e+001
    endloop
  endfacet
  facet normal  9.238799e-001 -3.826826e-001  0.000000e+000
    outer loop
      vertex -3.311053e+001  1.366856e+000  2.100106e+001
      vertex -3.340343e+001  6.597490e-001  2.300106e+001
      vertex -3.340343e+001  6.597490e-001  2.100106e+001
    endloop
  endfacet
  facet normal  3.826830e-001 -9.238796e-001  0.000000e+000
    outer loop
      vertex -3.311053e+001  1.366856e+000  2.300106e+001
      vertex -3.240343e+001  1.659749e+000  2.100106e+001
      vertex -3.240343e+001  1.659749e+000  2.300106e+001
    endloop
  endfacet
  facet normal -3.826830e-001 -9.238796e-001  -0.000000e+000
    outer loop
      vertex -3.240343e+001  1.659749e+000  2.300106e+001
      vertex -3.240343e+001  1.659749e+000  2.100106e+001
      vertex -3.169632e+001  1.366856e+000  2.100106e+001
    endloop
  endfacet
  facet normal -3.826830e-001 -9.238796e-001  0.000000e+000
    outer loop
      vertex -3.240343e+001  1.659749e+000  2.300106e+001
      vertex -3.169632e+001  1.366856e+000  2.100106e+001
      vertex -3.169632e+001  1.366856e+000  2.300106e+001
    endloop
  endfacet
  facet normal -9.238799e-001 -3.826826e-001  -0.000000e+000
    outer loop
      vertex -3.169632e+001  1.366856e+000  2.300106e+001
      vertex -3.169632e+001  1.366856e+000  2.100106e+001
      vertex -3.140343e+001  6.597490e-001  2.100106e+001
    endloop
  endfacet
  facet normal -9.238799e-001 -3.826826e-001  0.000000e+000
    outer loop
      vertex -3.169632e+001  1.366856e+000  2.300106e+001
      vertex -3.140343e+001  6.597490e-001  2.100106e+001
      vertex -3.140343e+001  6.597490e-001  2.300106e+001
    endloop
  endfacet
  facet normal -3.826831e-001  9.238796e-001  0.000000e+000
    outer loop
      vertex -3.240343e+001 -3.402510e-001  2.100106e+001
      vertex -3.169632e+001 -4.735775e-002  2.300106e+001
      vertex -3.169632e+001 -4.735775e-002  2.100106e+001
    endloop
  endfacet
  facet normal -9.238799e-001  3.826826e-001  0.000000e+000
    outer loop
      vertex -3.169632e+001 -4.735775e-002  2.100106e+001
      vertex -3.169632e+001 -4.735775e-002  2.300106e+001
      vertex -3.140343e+001  6.597490e-001  2.300106e+001
    endloop
  endfacet
  facet normal -9.238799e-001  3.826826e-001  0.000000e+000
    outer loop
      vertex -3.169632e+001 -4.735775e-002  2.100106e+001
      vertex -3.140343e+001  6.597490e-001  2.300106e+001
      vertex -3.140343e+001  6.597490e-001  2.100106e+001
    endloop
  endfacet
  facet normal -3.826831e-001  9.238796e-001  0.000000e+000
    outer loop
      vertex -3.169632e+001 -4.735775e-002  2.300106e+001
      vertex -3.240343e+001 -3.402510e-001  2.100106e+001
      vertex -3.240343e+001 -3.402510e-001  2.300106e+001
    endloop
  endfacet
  facet normal  3.826831e-001  9.238796e-001  0.000000e+000
    outer loop
      vertex -3.240343e+001 -3.402510e-001  2.300106e+001
      vertex -3.240343e+001 -3.402510e-001  2.100106e+001
      vertex -3.311053e+001 -4.735775e-002  2.100106e+001
    endloop
  endfacet
  facet normal  3.826831e-001  9.238796e-001  -0.000000e+000
    outer loop
      vertex -3.240343e+001 -3.402510e-001  2.300106e+001
      vertex -3.311053e+001 -4.735775e-002  2.100106e+001
      vertex -3.311053e+001 -4.735775e-002  2.300106e+001
    endloop
  endfacet
  facet normal  9.238799e-001  3.826826e-001  0.000000e+000
    outer loop
      vertex -3.311053e+001 -4.735775e-002  2.300106e+001
      vertex -3.311053e+001 -4.735775e-002  2.100106e+001
      vertex -3.340343e+001  6.597490e-001  2.100106e+001
    endloop
  endfacet
  facet normal  9.238799e-001  3.826826e-001  -0.000000e+000
    outer loop
      vertex -3.311053e+001 -4.735775e-002  2.300106e+001
      vertex -3.340343e+001  6.597490e-001  2.100106e+001
      vertex -3.340343e+001  6.597490e-001  2.300106e+001
    endloop
  endfacet
  facet normal  3.826822e-001 -9.238800e-001  0.000000e+000
    outer loop
      vertex -3.240343e+001 -2.566251e+001  2.100106e+001
      vertex -3.311053e+001 -2.595540e+001  2.300106e+001
      vertex -3.311053e+001 -2.595540e+001  2.100106e+001
    endloop
  endfacet
  facet normal  9.238800e-001 -3.826822e-001  0.000000e+000
    outer loop
      vertex -3.311053e+001 -2.595540e+001  2.100106e+001
      vertex -3.311053e+001 -2.595540e+001  2.300106e+001
      vertex -3.340343e+001 -2.666251e+001  2.300106e+001
    endloop
  endfacet
  facet normal  9.238800e-001 -3.826822e-001  0.000000e+000
    outer loop
      vertex -3.311053e+001 -2.595540e+001  2.100106e+001
      vertex -3.340343e+001 -2.666251e+001  2.300106e+001
      vertex -3.340343e+001 -2.666251e+001  2.100106e+001
    endloop
  endfacet
  facet normal  3.826822e-001 -9.238800e-001  0.000000e+000
    outer loop
      vertex -3.311053e+001 -2.595540e+001  2.300106e+001
      vertex -3.240343e+001 -2.566251e+001  2.100106e+001
      vertex -3.240343e+001 -2.566251e+001  2.300106e+001
    endloop
  endfacet
  facet normal -3.826822e-001 -9.238800e-001  -0.000000e+000
    outer loop
      vertex -3.240343e+001 -2.566251e+001  2.300106e+001
      vertex -3.240343e+001 -2.566251e+001  2.100106e+001
      vertex -3.169632e+001 -2.595540e+001  2.100106e+001
    endloop
  endfacet
  facet normal -3.826822e-001 -9.238800e-001  0.000000e+000
    outer loop
      vertex -3.240343e+001 -2.566251e+001  2.300106e+001
      vertex -3.169632e+001 -2.595540e+001  2.100106e+001
      vertex -3.169632e+001 -2.595540e+001  2.300106e+001
    endloop
  endfacet
  facet normal -9.238800e-001 -3.826822e-001  -0.000000e+000
    outer loop
      vertex -3.169632e+001 -2.595540e+001  2.300106e+001
      vertex -3.169632e+001 -2.595540e+001  2.100106e+001
      vertex -3.140343e+001 -2.666251e+001  2.100106e+001
    endloop
  endfacet
  facet normal -9.238800e-001 -3.826822e-001  0.000000e+000
    outer loop
      vertex -3.169632e+001 -2.595540e+001  2.300106e+001
      vertex -3.140343e+001 -2.666251e+001  2.100106e+001
      vertex -3.140343e+001 -2.666251e+001  2.300106e+001
    endloop
  endfacet
  facet normal -3.826822e-001  9.238800e-001  0.000000e+000
    outer loop
      vertex -3.240343e+001 -2.766251e+001  2.100106e+001
      vertex -3.169632e+001 -2.736961e+001  2.300106e+001
      vertex -3.169632e+001 -2.736961e+001  2.100106e+001
    endloop
  endfacet
  facet normal -9.238800e-001  3.826822e-001  0.000000e+000
    outer loop
      vertex -3.169632e+001 -2.736961e+001  2.100106e+001
      vertex -3.169632e+001 -2.736961e+001  2.300106e+001
      vertex -3.140343e+001 -2.666251e+001  2.300106e+001
    endloop
  endfacet
  facet normal -9.238800e-001  3.826822e-001  0.000000e+000
    outer loop
      vertex -3.169632e+001 -2.736961e+001  2.100106e+001
      vertex -3.140343e+001 -2.666251e+001  2.300106e+001
      vertex -3.140343e+001 -2.666251e+001  2.100106e+001
    endloop
  endfacet
  facet normal -3.826822e-001  9.238800e-001  0.000000e+000
    outer loop
      vertex -3.169632e+001 -2.736961e+001  2.300106e+001
      vertex -3.240343e+001 -2.766251e+001  2.100106e+001
      vertex -3.240343e+001 -2.766251e+001  2.300106e+001
    endloop
  endfacet
  facet normal  3.826822e-001  9.238800e-001  0.000000e+000
    outer loop
      vertex -3.240343e+001 -2.766251e+001  2.300106e+001
      vertex -3.240343e+001 -2.766251e+001  2.100106e+001
      vertex -3.311053e+001 -2.736961e+001  2.100106e+001
    endloop
  endfacet
  facet normal  3.826822e-001  9.238800e-001  -0.000000e+000
    outer loop
      vertex -3.240343e+001 -2.766251e+001  2.300106e+001
      vertex -3.311053e+001 -2.736961e+001  2.100106e+001
      vertex -3.311053e+001 -2.736961e+001  2.300106e+001
    endloop
  endfacet
  facet normal  9.238800e-001  3.826822e-001  0.000000e+000
    outer loop
      vertex -3.311053e+001 -2.736961e+001  2.300106e+001
      vertex -3.311053e+001 -2.736961e+001  2.100106e+001
      vertex -3.340343e+001 -2.666251e+001  2.100106e+001
    endloop
  endfacet
  facet normal  9.238800e-001  3.826822e-001  -0.000000e+000
    outer loop
      vertex -3.311053e+001 -2.736961e+001  2.300106e+001
      vertex -3.340343e+001 -2.666251e+001  2.100106e+001
      vertex -3.340343e+001 -2.666251e+001  2.300106e+001
    endloop
  endfacet
  facet normal  1.000000e+000  0.000000e+000  0.000000e+000
    outer loop
      vertex -2.595290e+001 -8.402510e-001  2.100106e+001
      vertex -2.595290e+001 -8.402510e-001  2.300106e+001
      vertex -2.595290e+001 -2.516251e+001  2.100106e+001
    endloop
  endfacet
  facet normal  1.000000e+000  0.000000e+000  0.000000e+000
    outer loop
      vertex -2.595290e+001 -2.516251e+001  2.100106e+001
      vertex -2.595290e+001 -8.402510e-001  2.300106e+001
      vertex -2.595290e+001 -2.516251e+001  2.300106e+001
    endloop
  endfacet
  facet normal  0.000000e+000 -1.000000e+000  -0.000000e+000
    outer loop
      vertex -2.595290e+001 -2.516251e+001  2.100106e+001
      vertex -2.595290e+001 -2.516251e+001  2.300106e+001
      vertex -2.940343e+001 -2.516251e+001  2.100106e+001
    endloop
  endfacet
  facet normal  0.000000e+000 -1.000000e+000  0.000000e+000
    outer loop
      vertex -2.940343e+001 -2.516251e+001  2.100106e+001
      vertex -2.595290e+001 -2.516251e+001  2.300106e+001
      vertex -2.940343e+001 -2.516251e+001  2.300106e+001
    endloop
  endfacet
  facet normal  9.510566e-001 -3.090168e-001  0.000000e+000
    outer loop
      vertex -2.940343e+001 -2.516251e+001  2.100106e+001
      vertex -2.940343e+001 -2.516251e+001  2.300106e+001
      vertex -2.997638e+001 -2.692586e+001  2.100106e+001
    endloop
  endfacet
  facet normal  9.510566e-001 -3.090168e-001  0.000000e+000
    outer loop
      vertex -2.997638e+001 -2.692586e+001  2.100106e+001
      vertex -2.940343e+001 -2.516251e+001  2.300106e+001
      vertex -2.997638e+001 -2.692586e+001  2.300106e+001
    endloop
  endfacet
  facet normal  5.877857e-001 -8.090166e-001  0.000000e+000
    outer loop
      vertex -2.997638e+001 -2.692586e+001  2.100106e+001
      vertex -2.997638e+001 -2.692586e+001  2.300106e+001
      vertex -3.147638e+001 -2.801568e+001  2.100106e+001
    endloop
  endfacet
  facet normal  5.877857e-001 -8.090166e-001  0.000000e+000
    outer loop
      vertex -3.147638e+001 -2.801568e+001  2.100106e+001
      vertex -2.997638e+001 -2.692586e+001  2.300106e+001
      vertex -3.147638e+001 -2.801568e+001  2.300106e+001
    endloop
  endfacet
  facet normal  0.000000e+000 -9.999999e-001  -0.000000e+000
    outer loop
      vertex -3.147638e+001 -2.801568e+001  2.100106e+001
      vertex -3.147638e+001 -2.801568e+001  2.300106e+001
      vertex -3.333048e+001 -2.801568e+001  2.100106e+001
    endloop
  endfacet
  facet normal  0.000000e+000 -9.999999e-001  0.000000e+000
    outer loop
      vertex -3.333048e+001 -2.801568e+001  2.100106e+001
      vertex -3.147638e+001 -2.801568e+001  2.300106e+001
      vertex -3.333048e+001 -2.801568e+001  2.300106e+001
    endloop
  endfacet
  facet normal -5.877857e-001 -8.090166e-001  -0.000000e+000
    outer loop
      vertex -3.333048e+001 -2.801568e+001  2.100106e+001
      vertex -3.333048e+001 -2.801568e+001  2.300106e+001
      vertex -3.483048e+001 -2.692586e+001  2.100106e+001
    endloop
  endfacet
  facet normal -5.877857e-001 -8.090166e-001  0.000000e+000
    outer loop
      vertex -3.483048e+001 -2.692586e+001  2.100106e+001
      vertex -3.333048e+001 -2.801568e+001  2.300106e+001
      vertex -3.483048e+001 -2.692586e+001  2.300106e+001
    endloop
  endfacet
  facet normal -9.510566e-001 -3.090168e-001  -0.000000e+000
    outer loop
      vertex -3.483048e+001 -2.692586e+001  2.100106e+001
      vertex -3.483048e+001 -2.692586e+001  2.300106e+001
      vertex -3.540343e+001 -2.516251e+001  2.100106e+001
    endloop
  endfacet
  facet normal -9.510566e-001 -3.090168e-001  0.000000e+000
    outer loop
      vertex -3.540343e+001 -2.516251e+001  2.100106e+001
      vertex -3.483048e+001 -2.692586e+001  2.300106e+001
      vertex -3.540343e+001 -2.516251e+001  2.300106e+001
    endloop
  endfacet
  facet normal  0.000000e+000 -1.000000e+000  -0.000000e+000
    outer loop
      vertex -3.540343e+001 -2.516251e+001  2.100106e+001
      vertex -3.540343e+001 -2.516251e+001  2.300106e+001
      vertex -3.885395e+001 -2.516251e+001  2.100106e+001
    endloop
  endfacet
  facet normal  0.000000e+000 -1.000000e+000  0.000000e+000
    outer loop
      vertex -3.885395e+001 -2.516251e+001  2.100106e+001
      vertex -3.540343e+001 -2.516251e+001  2.300106e+001
      vertex -3.885395e+001 -2.516251e+001  2.300106e+001
    endloop
  endfacet
  facet normal -1.000000e+000  0.000000e+000  0.000000e+000
    outer loop
      vertex -3.885395e+001 -2.516251e+001  2.100106e+001
      vertex -3.885395e+001 -2.516251e+001  2.300106e+001
      vertex -3.885395e+001 -8.402510e-001  2.100106e+001
    endloop
  endfacet
  facet normal -1.000000e+000  0.000000e+000  0.000000e+000
    outer loop
      vertex -3.885395e+001 -8.402510e-001  2.100106e+001
      vertex -3.885395e+001 -2.516251e+001  2.300106e+001
      vertex -3.885395e+001 -8.402510e-001  2.300106e+001
    endloop
  endfacet
  facet normal  0.000000e+000  1.000000e+000  0.000000e+000
    outer loop
      vertex -3.885395e+001 -8.402510e-001  2.100106e+001
      vertex -3.885395e+001 -8.402510e-001  2.300106e+001
      vertex -3.540343e+001 -8.402510e-001  2.100106e+001
    endloop
  endfacet
  facet normal  0.000000e+000  1.000000e+000  -0.000000e+000
    outer loop
      vertex -3.540343e+001 -8.402510e-001  2.100106e+001
      vertex -3.885395e+001 -8.402510e-001  2.300106e+001
      vertex -3.540343e+001 -8.402510e-001  2.300106e+001
    endloop
  endfacet
  facet normal -9.510566e-001  3.090167e-001  0.000000e+000
    outer loop
      vertex -3.540343e+001 -8.402510e-001  2.100106e+001
      vertex -3.540343e+001 -8.402510e-001  2.300106e+001
      vertex -3.483048e+001  9.231048e-001  2.100106e+001
    endloop
  endfacet
  facet normal -9.510566e-001  3.090167e-001  0.000000e+000
    outer loop
      vertex -3.483048e+001  9.231048e-001  2.100106e+001
      vertex -3.540343e+001 -8.402510e-001  2.300106e+001
      vertex -3.483048e+001  9.231048e-001  2.300106e+001
    endloop
  endfacet
  facet normal -5.877852e-001  8.090170e-001  0.000000e+000
    outer loop
      vertex -3.483048e+001  9.231048e-001  2.100106e+001
      vertex -3.483048e+001  9.231048e-001  2.300106e+001
      vertex -3.333048e+001  2.012918e+000  2.100106e+001
    endloop
  endfacet
  facet normal -5.877852e-001  8.090170e-001  0.000000e+000
    outer loop
      vertex -3.333048e+001  2.012918e+000  2.100106e+001
      vertex -3.483048e+001  9.231048e-001  2.300106e+001
      vertex -3.333048e+001  2.012918e+000  2.300106e+001
    endloop
  endfacet
  facet normal  0.000000e+000  9.999999e-001  0.000000e+000
    outer loop
      vertex -3.333048e+001  2.012918e+000  2.100106e+001
      vertex -3.333048e+001  2.012918e+000  2.300106e+001
      vertex -3.147638e+001  2.012918e+000  2.100106e+001
    endloop
  endfacet
  facet normal  0.000000e+000  9.999999e-001  -0.000000e+000
    outer loop
      vertex -3.147638e+001  2.012918e+000  2.100106e+001
      vertex -3.333048e+001  2.012918e+000  2.300106e+001
      vertex -3.147638e+001  2.012918e+000  2.300106e+001
    endloop
  endfacet
  facet normal  5.877852e-001  8.090170e-001  0.000000e+000
    outer loop
      vertex -3.147638e+001  2.012918e+000  2.100106e+001
      vertex -3.147638e+001  2.012918e+000  2.300106e+001
      vertex -2.997638e+001  9.231048e-001  2.100106e+001
    endloop
  endfacet
  facet normal  5.877852e-001  8.090170e-001  -0.000000e+000
    outer loop
      vertex -2.997638e+001  9.231048e-001  2.100106e+001
      vertex -3.147638e+001  2.012918e+000  2.300106e+001
      vertex -2.997638e+001  9.231048e-001  2.300106e+001
    endloop
  endfacet
  facet normal  9.510566e-001  3.090167e-001  0.000000e+000
    outer loop
      vertex -2.997638e+001  9.231048e-001  2.100106e+001
      vertex -2.997638e+001  9.231048e-001  2.300106e+001
      vertex -2.940343e+001 -8.402510e-001  2.100106e+001
    endloop
  endfacet
  facet normal  9.510566e-001  3.090167e-001  -0.000000e+000
    outer loop
      vertex -2.940343e+001 -8.402510e-001  2.100106e+001
      vertex -2.997638e+001  9.231048e-001  2.300106e+001
      vertex -2.940343e+001 -8.402510e-001  2.300106e+001
    endloop
  endfacet
  facet normal  0.000000e+000  1.000000e+000  0.000000e+000
    outer loop
      vertex -2.940343e+001 -8.402510e-001  2.100106e+001
      vertex -2.940343e+001 -8.402510e-001  2.300106e+001
      vertex -2.595290e+001 -8.402510e-001  2.100106e+001
    endloop
  endfacet
  facet normal  0.000000e+000  1.000000e+000  -0.000000e+000
    outer loop
      vertex -2.595290e+001 -8.402510e-001  2.100106e+001
      vertex -2.940343e+001 -8.402510e-001  2.300106e+001
      vertex -2.595290e+001 -8.402510e-001  2.300106e+001
    endloop
  endfacet
endsolid CATIA STL
