solid CATIA STL
  facet normal  0.000000e+000 -1.000000e+000  0.000000e+000
    outer loop
      vertex  1.684928e+001 -3.020309e+001  2.200106e+001
      vertex  1.684928e+001 -3.020309e+001  1.147984e+001
      vertex  1.884928e+001 -3.020309e+001  1.807944e+001
    endloop
  endfacet
  facet normal  0.000000e+000 -1.000000e+000  0.000000e+000
    outer loop
      vertex  1.684928e+001 -3.020309e+001  2.200106e+001
      vertex  1.884928e+001 -3.020309e+001  1.807944e+001
      vertex  2.277940e+001 -3.020309e+001  2.034850e+001
    endloop
  endfacet
  facet normal  0.000000e+000 -9.999999e-001  0.000000e+000
    outer loop
      vertex  1.684928e+001 -3.020309e+001  2.200106e+001
      vertex  2.277940e+001 -3.020309e+001  2.034850e+001
      vertex  2.477940e+001 -3.020309e+001  2.200106e+001
    endloop
  endfacet
  facet normal  0.000000e+000 -1.000000e+000  0.000000e+000
    outer loop
      vertex  2.477940e+001 -3.020309e+001  2.200106e+001
      vertex  2.277940e+001 -3.020309e+001  2.034850e+001
      vertex  2.477940e+001 -3.020309e+001  1.147984e+001
    endloop
  endfacet
  facet normal  0.000000e+000 -1.000000e+000  0.000000e+000
    outer loop
      vertex  2.477940e+001 -3.020309e+001  1.147984e+001
      vertex  2.277940e+001 -3.020309e+001  2.034850e+001
      vertex  2.277940e+001 -3.020309e+001  1.581038e+001
    endloop
  endfacet
  facet normal  0.000000e+000 -1.000000e+000  -0.000000e+000
    outer loop
      vertex  2.477940e+001 -3.020309e+001  1.147984e+001
      vertex  2.277940e+001 -3.020309e+001  1.581038e+001
      vertex  1.684928e+001 -3.020309e+001  1.147984e+001
    endloop
  endfacet
  facet normal  0.000000e+000 -1.000000e+000  0.000000e+000
    outer loop
      vertex  1.684928e+001 -3.020309e+001  1.147984e+001
      vertex  2.277940e+001 -3.020309e+001  1.581038e+001
      vertex  1.884928e+001 -3.020309e+001  1.807944e+001
    endloop
  endfacet
  facet normal  1.000000e+000  0.000000e+000  0.000000e+000
    outer loop
      vertex  2.277940e+001 -3.320309e+001  2.034850e+001
      vertex  2.277940e+001 -3.320309e+001  1.581038e+001
      vertex  2.277940e+001 -3.020309e+001  2.034850e+001
    endloop
  endfacet
  facet normal  1.000000e+000  0.000000e+000  0.000000e+000
    outer loop
      vertex  2.277940e+001 -3.020309e+001  2.034850e+001
      vertex  2.277940e+001 -3.320309e+001  1.581038e+001
      vertex  2.277940e+001 -3.020309e+001  1.581038e+001
    endloop
  endfacet
  facet normal -5.000000e-001  0.000000e+000 -8.660254e-001
    outer loop
      vertex  2.277940e+001 -3.320309e+001  1.581038e+001
      vertex  1.884928e+001 -3.320309e+001  1.807944e+001
      vertex  2.277940e+001 -3.020309e+001  1.581038e+001
    endloop
  endfacet
  facet normal -5.000000e-001  0.000000e+000 -8.660254e-001
    outer loop
      vertex  2.277940e+001 -3.020309e+001  1.581038e+001
      vertex  1.884928e+001 -3.320309e+001  1.807944e+001
      vertex  1.884928e+001 -3.020309e+001  1.807944e+001
    endloop
  endfacet
  facet normal -5.000001e-001  0.000000e+000  8.660253e-001
    outer loop
      vertex  1.884928e+001 -3.320309e+001  1.807944e+001
      vertex  2.277940e+001 -3.320309e+001  2.034850e+001
      vertex  1.884928e+001 -3.020309e+001  1.807944e+001
    endloop
  endfacet
  facet normal -5.000001e-001  0.000000e+000  8.660253e-001
    outer loop
      vertex  1.884928e+001 -3.020309e+001  1.807944e+001
      vertex  2.277940e+001 -3.320309e+001  2.034850e+001
      vertex  2.277940e+001 -3.020309e+001  2.034850e+001
    endloop
  endfacet
  facet normal  0.000000e+000  1.000000e+000  0.000000e+000
    outer loop
      vertex  2.477940e+001 -2.600309e+001  1.147984e+001
      vertex  1.684928e+001 -2.600309e+001  1.147984e+001
      vertex  2.477940e+001 -2.600309e+001  2.200106e+001
    endloop
  endfacet
  facet normal  0.000000e+000  1.000000e+000  0.000000e+000
    outer loop
      vertex  2.477940e+001 -2.600309e+001  2.200106e+001
      vertex  1.684928e+001 -2.600309e+001  1.147984e+001
      vertex  1.684928e+001 -2.600309e+001  2.200106e+001
    endloop
  endfacet
  facet normal -1.000000e+000  0.000000e+000  0.000000e+000
    outer loop
      vertex  1.684928e+001 -2.600309e+001  2.200106e+001
      vertex  1.684928e+001 -2.600309e+001  1.147984e+001
      vertex  1.684928e+001 -3.020309e+001  2.200106e+001
    endloop
  endfacet
  facet normal -1.000000e+000  0.000000e+000  0.000000e+000
    outer loop
      vertex  1.684928e+001 -3.020309e+001  2.200106e+001
      vertex  1.684928e+001 -2.600309e+001  1.147984e+001
      vertex  1.684928e+001 -3.020309e+001  1.147984e+001
    endloop
  endfacet
  facet normal  -0.000000e+000  0.000000e+000 -1.000000e+000
    outer loop
      vertex  1.684928e+001 -2.600309e+001  1.147984e+001
      vertex  2.477940e+001 -2.600309e+001  1.147984e+001
      vertex  1.684928e+001 -3.020309e+001  1.147984e+001
    endloop
  endfacet
  facet normal  0.000000e+000  0.000000e+000 -1.000000e+000
    outer loop
      vertex  1.684928e+001 -3.020309e+001  1.147984e+001
      vertex  2.477940e+001 -2.600309e+001  1.147984e+001
      vertex  2.477940e+001 -3.020309e+001  1.147984e+001
    endloop
  endfacet
  facet normal  1.000000e+000  0.000000e+000  0.000000e+000
    outer loop
      vertex  2.477940e+001 -2.600309e+001  1.147984e+001
      vertex  2.477940e+001 -2.600309e+001  2.200106e+001
      vertex  2.477940e+001 -3.020309e+001  1.147984e+001
    endloop
  endfacet
  facet normal  1.000000e+000  0.000000e+000  0.000000e+000
    outer loop
      vertex  2.477940e+001 -3.020309e+001  1.147984e+001
      vertex  2.477940e+001 -2.600309e+001  2.200106e+001
      vertex  2.477940e+001 -3.020309e+001  2.200106e+001
    endloop
  endfacet
  facet normal  -0.000000e+000  0.000000e+000  1.000000e+000
    outer loop
      vertex  2.477940e+001 -2.600309e+001  2.200106e+001
      vertex  1.684928e+001 -2.600309e+001  2.200106e+001
      vertex  2.477940e+001 -3.020309e+001  2.200106e+001
    endloop
  endfacet
  facet normal  0.000000e+000  0.000000e+000  1.000000e+000
    outer loop
      vertex  2.477940e+001 -3.020309e+001  2.200106e+001
      vertex  1.684928e+001 -2.600309e+001  2.200106e+001
      vertex  1.684928e+001 -3.020309e+001  2.200106e+001
    endloop
  endfacet
  facet normal  0.000000e+000 -1.000000e+000  0.000000e+000
    outer loop
      vertex  2.277940e+001 -3.320309e+001  2.034850e+001
      vertex  1.884928e+001 -3.320309e+001  1.807944e+001
      vertex  2.277940e+001 -3.320309e+001  1.581038e+001
    endloop
  endfacet
endsolid CATIA STL
